<svg width="18" height="18" viewBox="0 0 18 18" fill="none" xmlns="http://www.w3.org/2000/svg">
<g clip-path="url(#clip0_15131_2068)">
<path d="M10.2471 10.0963C10.2203 10.0963 10.1943 10.0869 10.1735 10.0674C10.1319 10.0274 10.131 9.96192 10.1709 9.9211C10.3303 9.75955 10.5106 9.6405 10.7073 9.56738C10.9595 9.47299 11.1502 9.48235 11.6104 9.50446C11.7057 9.50871 11.8123 9.51381 11.9345 9.51891C12.0601 9.52401 12.3773 9.53592 12.6079 9.53762C12.8332 9.53932 13.218 9.53167 13.965 9.44408C14.5898 9.37096 15.0024 9.32249 15.5778 9.19835C15.5865 9.19665 16.4895 8.99683 17.4567 8.47389C17.5407 8.42883 17.7947 8.29108 17.7869 8.19755C17.7799 8.11166 17.5607 8.01388 17.4029 7.97562C16.415 8.02663 15.4383 8.13207 14.4997 8.28938C14.4105 8.30468 12.2993 8.65246 11.1398 8.43053C10.5409 8.31574 10.1622 7.98412 10.1466 7.96966C10.1301 7.95521 10.1163 7.94245 10.1093 7.93565C10.0677 7.89569 10.066 7.83107 10.1067 7.7894C10.1466 7.74859 10.2133 7.74689 10.2558 7.78685C10.2627 7.7928 10.274 7.80386 10.2887 7.81661C10.2922 7.82001 10.6423 8.12442 11.1805 8.22731C12.3019 8.44158 14.4434 8.08871 14.465 8.0853C15.4157 7.9263 16.4063 7.82001 17.4081 7.76814C17.4177 7.76814 17.4281 7.76814 17.4376 7.77069C17.5269 7.7911 17.9749 7.90674 17.9975 8.18054C18.0157 8.40672 17.7297 8.56147 17.5589 8.65416C16.6524 9.14393 15.7763 9.36756 15.6237 9.39817C15.0379 9.52656 14.621 9.57503 13.9901 9.64901C13.231 9.73829 12.8366 9.74594 12.6061 9.74339C12.3721 9.74169 12.0523 9.72979 11.9258 9.72468C11.8027 9.71958 11.6953 9.71448 11.6 9.71023C11.1588 9.68897 10.9933 9.68047 10.7827 9.75955C10.6155 9.82247 10.4603 9.9245 10.3225 10.064C10.3017 10.0852 10.274 10.0954 10.2471 10.0954V10.0963Z" fill="white"/>
<path d="M6.80917 8.97363C6.79183 8.97363 6.7745 8.96938 6.75803 8.96088C6.7069 8.93282 6.6887 8.87074 6.71644 8.82058C6.78057 8.70664 6.80657 8.5978 6.79357 8.49661C6.74677 8.12843 6.20079 7.89035 5.99453 7.80107L5.97633 7.79341C5.95206 7.78321 3.51335 6.69568 1.52529 3.84462C1.3459 3.58698 1.32164 3.3727 1.3095 3.26982L1.3069 3.24686C1.27484 2.99262 1.4005 2.786 1.46723 2.67461C1.4941 2.62954 1.55216 2.61169 1.60069 2.63294C1.74195 2.69416 1.87975 2.76644 2.01061 2.84807C2.24633 2.99432 2.46473 3.17203 2.65799 3.37611C3.03411 3.77235 3.45616 4.12862 3.86521 4.47384C4.133 4.70002 4.40945 4.93386 4.67118 5.17619C5.47455 5.9219 6.59077 6.56388 7.98779 7.08511C8.04239 7.10552 8.06925 7.16504 8.04845 7.21861C8.02765 7.27218 7.96699 7.29854 7.91239 7.27813C6.48938 6.74669 5.35062 6.09026 4.52645 5.32584C4.26819 5.08691 3.99347 4.85393 3.72741 4.62945C3.31403 4.28082 2.88764 3.9203 2.50806 3.52066C2.43613 3.44498 2.23073 3.22815 1.89795 3.02238C1.80262 2.96286 1.70295 2.90929 1.60156 2.86082C1.54869 2.95691 1.49843 3.08105 1.51663 3.22135L1.51923 3.24771C1.52963 3.34039 1.54956 3.51385 1.69949 3.72898C3.65462 6.53242 6.03873 7.59529 6.06213 7.6055L6.08033 7.61315C6.31605 7.71519 6.94176 7.98728 7.00329 8.47195C7.02149 8.61735 6.98769 8.76871 6.90103 8.92091C6.88196 8.95492 6.84556 8.97448 6.80917 8.97448V8.97363Z" fill="white"/>
<path d="M10.1232 7.83168C10.1171 7.83168 10.1111 7.83168 10.105 7.82998C10.0478 7.81977 10.0097 7.7662 10.0192 7.71008C10.2931 6.1855 10.5643 4.87008 10.8252 3.80041C11.223 2.16783 11.2654 1.99692 11.281 1.96461C11.2836 1.95951 11.5401 1.41701 11.6355 0.545457C11.6441 0.469781 11.6476 0.360942 11.5852 0.293769C11.5566 0.263158 11.515 0.2419 11.4604 0.230846C11.4569 0.230846 11.4535 0.229146 11.45 0.228295C11.3755 0.205337 11.3053 0.201086 11.2412 0.214691C11.1649 0.231697 11.0384 0.35329 10.8659 0.576918C10.0192 1.67381 9.67341 3.05894 9.33889 4.39817C9.19676 4.96617 9.0503 5.55372 8.86657 6.11577C8.86051 6.13448 8.85357 6.15829 8.84577 6.1855C8.79898 6.34875 8.71231 6.65401 8.47052 6.93121C8.39166 7.02134 8.30326 7.10297 8.2062 7.17525C8.1594 7.21011 8.09353 7.20076 8.05887 7.15484C8.02334 7.10892 8.03287 7.0443 8.07967 7.01029C8.1646 6.94737 8.2426 6.87509 8.31106 6.79686C8.52252 6.55453 8.59878 6.28838 8.64385 6.13023C8.65251 6.10047 8.65945 6.07411 8.66638 6.05285C8.84751 5.49846 8.9931 4.9143 9.13436 4.3497C9.47408 2.99007 9.82507 1.58367 10.6986 0.452775C10.917 0.170475 11.0609 0.0429301 11.1961 0.0131696C11.2957 -0.00893823 11.4015 -0.00298613 11.5089 0.0293253C11.6043 0.0497325 11.6823 0.0913972 11.7403 0.154319C11.8738 0.29802 11.8521 0.501242 11.8443 0.567565C11.7447 1.47654 11.4821 2.03008 11.4708 2.05304C11.4561 2.09896 11.2957 2.75624 11.0297 3.84547C10.7688 4.9143 10.4984 6.22546 10.2255 7.7458C10.2168 7.79597 10.1717 7.83083 10.1215 7.83083L10.1232 7.83168Z" fill="white"/>
<path d="M0.842359 13.9079C0.435907 13.9079 0.133452 13.765 0.00952284 13.5048C-0.00867648 13.4666 -0.00174341 13.4224 0.0277222 13.3918C1.03215 12.3161 2.3529 11.5917 3.63032 10.8919C4.67028 10.3222 5.74491 9.73292 6.64101 8.95744C6.68434 8.92003 6.75107 8.92343 6.79007 8.9668C6.8282 9.00931 6.82474 9.07479 6.78054 9.11305C5.86711 9.90298 4.78208 10.4973 3.73258 11.073C2.49156 11.7532 1.20981 12.4556 0.233981 13.4768C0.433307 13.7599 0.955888 13.7047 1.11882 13.68C2.5037 13.4666 3.73258 12.7039 4.92074 11.9667C5.42512 11.6537 5.94597 11.3306 6.47462 11.0509L6.50668 11.0339C6.64534 10.9591 6.93393 10.8043 7.32738 10.7346C7.54318 10.6963 7.76504 10.687 7.98689 10.7065C8.04496 10.7116 8.08742 10.7618 8.08222 10.8188C8.07702 10.8757 8.02589 10.9174 7.96783 10.9123C7.76504 10.8944 7.56138 10.9038 7.36378 10.9378C7.00413 11.0016 6.74587 11.1402 6.60635 11.215L6.57255 11.2328C6.04997 11.5092 5.53172 11.8306 5.0308 12.141C3.82445 12.8892 2.57736 13.663 1.14915 13.8832C1.03995 13.9002 0.936822 13.9079 0.838892 13.9079H0.842359Z" fill="white"/>
<path d="M11.7612 18.0002C11.477 18.0002 11.165 17.814 10.8894 17.4696C9.99674 16.3532 9.62149 14.9536 9.25837 13.599C9.10758 13.037 8.95158 12.4554 8.76092 11.9035C8.75399 11.8823 8.74619 11.8568 8.73666 11.827C8.68899 11.6689 8.6084 11.4053 8.3926 11.1655C8.32241 11.0881 8.24354 11.0175 8.15775 10.9555C8.11095 10.9223 8.10055 10.8568 8.13435 10.8109C8.16901 10.765 8.23488 10.7548 8.28167 10.7879C8.3796 10.8585 8.4706 10.9384 8.55033 11.0277C8.79732 11.3015 8.88918 11.6042 8.93858 11.7666C8.94638 11.7938 8.95418 11.8168 8.96025 11.8355C9.15351 12.3942 9.31037 12.9792 9.46203 13.5446C9.81995 14.8779 10.1891 16.2571 11.0549 17.3395C11.1572 17.467 11.5012 17.8565 11.8435 17.7825C11.8392 16.3829 11.3886 15.0114 10.9526 13.6841C10.5843 12.5617 10.203 11.401 10.0834 10.2123C10.0773 10.1553 10.1198 10.1052 10.1779 10.0992C10.2359 10.0932 10.2871 10.1349 10.2931 10.1919C10.411 11.3585 10.788 12.5081 11.1537 13.6203C11.6026 14.9867 12.0663 16.3999 12.0541 17.859C12.0541 17.9007 12.0281 17.9381 11.9883 17.9543C11.9155 17.9832 11.8392 17.9976 11.7603 17.9976L11.7612 18.0002Z" fill="white"/>
<path d="M11.0426 1.43997C10.9906 1.43997 10.9412 1.42637 10.8996 1.40001C10.7523 1.30562 10.7679 1.09985 10.8138 0.985061C10.8632 0.861768 10.9837 0.734223 11.131 0.746977C11.2012 0.75293 11.2471 0.788642 11.2653 0.802247C11.3867 0.89493 11.4508 1.1024 11.3529 1.26226C11.3017 1.34559 11.2125 1.40936 11.1145 1.43147C11.0903 1.43657 11.066 1.43997 11.0426 1.43997ZM11.0149 1.22655C11.0261 1.23335 11.0452 1.23505 11.0669 1.22995C11.1085 1.22059 11.1509 1.19083 11.1726 1.15597C11.2142 1.08795 11.1778 0.997816 11.1353 0.964654C11.1284 0.959552 11.1206 0.95275 11.1128 0.95275C11.0885 0.949349 11.0339 1.00122 11.0105 1.06074C10.9871 1.11941 10.9845 1.20784 11.0149 1.2274V1.22655Z" fill="white"/>
<path d="M10.7775 2.32475C10.7342 2.32475 10.6909 2.31284 10.6554 2.28903C10.599 2.25162 10.5635 2.187 10.5592 2.11217C10.554 2.03139 10.5852 1.95402 10.6424 1.9047C10.6961 1.85878 10.7741 1.83752 10.8503 1.84858C10.9136 1.85793 10.9647 1.88769 10.9925 1.93276C11.0098 1.95912 11.0167 1.99228 11.015 2.0399C11.0124 2.10707 11.0089 2.21931 10.911 2.28393C10.8711 2.31029 10.8243 2.3239 10.7784 2.3239L10.7775 2.32475ZM10.7732 2.11727C10.7775 2.11727 10.7871 2.11727 10.7914 2.11387C10.7983 2.10707 10.8009 2.07646 10.8018 2.0535C10.7931 2.0535 10.7845 2.0569 10.7793 2.06115C10.7663 2.07306 10.7645 2.10707 10.7723 2.11812L10.7732 2.11727Z" fill="white"/>
<path d="M10.319 3.86343C10.2739 3.86343 10.2289 3.85237 10.189 3.82942C10.0789 3.76649 10.0512 3.63895 10.0616 3.54882C10.0746 3.43148 10.1552 3.36345 10.2081 3.31924C10.2462 3.28692 10.293 3.25376 10.3563 3.25036C10.4377 3.24526 10.5192 3.29458 10.5582 3.37365C10.5894 3.43743 10.5894 3.4944 10.585 3.54712C10.5772 3.6381 10.566 3.76224 10.4516 3.82857C10.4117 3.85152 10.3649 3.86343 10.319 3.86343ZM10.2947 3.65085C10.3103 3.65936 10.332 3.65765 10.3441 3.65085C10.3658 3.6381 10.371 3.57773 10.3753 3.52841C10.3788 3.491 10.3753 3.47824 10.3693 3.46379C10.3693 3.46209 10.3675 3.46124 10.3667 3.45954C10.3632 3.46209 10.358 3.46549 10.3502 3.47229C10.3025 3.5131 10.2748 3.53691 10.2713 3.57177C10.2696 3.58368 10.2705 3.6364 10.2947 3.65V3.65085Z" fill="white"/>
<path d="M9.41936 6.62054C9.38383 6.62054 9.34917 6.61374 9.31623 6.59674C9.22784 6.55167 9.17324 6.44368 9.16804 6.30678C9.16371 6.18264 9.20357 6.02363 9.3275 5.94966C9.4341 5.88589 9.60656 5.88503 9.69409 5.98537C9.72702 6.02278 9.73742 6.0636 9.74435 6.10271C9.76515 6.2192 9.79288 6.37906 9.67415 6.5049C9.61262 6.57038 9.51383 6.62139 9.41936 6.62139V6.62054ZM9.4133 6.41307C9.42803 6.41817 9.48436 6.40032 9.51989 6.3629C9.56409 6.31614 9.55542 6.24301 9.53723 6.13672C9.53463 6.12142 9.53289 6.11632 9.53202 6.11632C9.52249 6.10951 9.46703 6.10781 9.4367 6.12567C9.4029 6.14608 9.37863 6.2141 9.37776 6.28723C9.37776 6.3663 9.40376 6.40712 9.41243 6.41307H9.4133Z" fill="white"/>
<path d="M9.44538 7.27074C9.42892 7.27074 9.41245 7.26734 9.39685 7.25884L9.0658 7.08878C9.0138 7.06242 8.99386 7.00034 9.02073 6.94933C9.0476 6.89916 9.11086 6.87875 9.16286 6.90511L9.49391 7.07517C9.54591 7.10153 9.56584 7.1636 9.53898 7.21462C9.51991 7.25033 9.48351 7.26989 9.44538 7.26989V7.27074Z" fill="white"/>
<path d="M9.15342 8.19671C9.14562 8.19671 9.13782 8.19671 9.13002 8.19416C8.96536 8.15844 8.8241 8.0479 8.75044 7.89995C8.7253 7.84893 8.74697 7.78686 8.79984 7.7622C8.85183 7.73754 8.9151 7.7588 8.94023 7.81067C8.9853 7.90165 9.07542 7.97138 9.17595 7.99348C9.23315 8.00624 9.26868 8.06151 9.25569 8.11678C9.24442 8.16525 9.20109 8.19756 9.15256 8.19756L9.15342 8.19671Z" fill="white"/>
<path d="M7.94451 8.71602C7.91244 8.71602 7.88124 8.70242 7.86044 8.67521C7.82491 8.63014 7.83444 8.56467 7.88038 8.53066C7.93844 8.48729 7.9809 8.42522 7.99997 8.35635C8.01557 8.30108 8.07277 8.26877 8.1291 8.28407C8.18543 8.29938 8.21836 8.3555 8.20276 8.41077C8.17156 8.52301 8.10223 8.62419 8.00777 8.69477C7.9887 8.70922 7.96617 8.71602 7.94364 8.71602H7.94451Z" fill="white"/>
<path d="M7.21205 7.94168C7.16178 7.94168 7.11758 7.90682 7.10892 7.85665C7.09852 7.80053 7.13578 7.74696 7.19385 7.73591C7.26144 7.724 7.32731 7.68744 7.37237 7.63727C7.41137 7.59476 7.47724 7.5905 7.52143 7.62877C7.56477 7.66703 7.5691 7.73165 7.5301 7.77502C7.45297 7.8609 7.34637 7.91957 7.23198 7.93998C7.22591 7.94083 7.21898 7.94168 7.21291 7.94168H7.21205Z" fill="white"/>
<path d="M9.30162 9.22316C9.25396 9.22316 9.21062 9.1917 9.19936 9.14408C9.17942 9.06075 9.18202 8.97402 9.20889 8.89324C9.22622 8.83882 9.28602 8.80906 9.34149 8.82607C9.39695 8.84308 9.42728 8.90175 9.40995 8.95617C9.39522 9.00038 9.39348 9.05055 9.40475 9.09561C9.41862 9.15088 9.38395 9.207 9.32675 9.22061C9.31809 9.22231 9.31029 9.22316 9.30162 9.22316Z" fill="white"/>
<path d="M10.6579 9.19729C10.6085 9.19729 10.5643 9.16243 10.5548 9.11311L10.5054 8.85292C10.495 8.7968 10.5323 8.74323 10.5895 8.73218C10.6467 8.72197 10.7013 8.75853 10.7125 8.81465L10.7619 9.07485C10.7723 9.13097 10.7351 9.18453 10.6779 9.19559C10.6718 9.19644 10.6649 9.19729 10.6588 9.19729H10.6579Z" fill="white"/>
<path d="M8.47827 9.60875C8.47827 9.60875 8.47133 9.60875 8.46787 9.60875C8.34827 9.59769 8.24774 9.50161 8.23214 9.38512C8.22434 9.32815 8.26594 9.27713 8.32314 9.26948C8.38034 9.26183 8.4332 9.30264 8.441 9.35876C8.4436 9.37917 8.46613 9.40127 8.4878 9.40298C8.54586 9.40808 8.58833 9.45909 8.58313 9.51521C8.57793 9.56878 8.532 9.60875 8.47827 9.60875Z" fill="white"/>
<path d="M8.34819 10.3238C8.33865 10.3238 8.32825 10.3221 8.31872 10.3196C8.17919 10.2796 8.07693 10.1478 8.0752 10.005C8.0752 9.94801 8.12113 9.90124 8.17919 9.90039H8.18006C8.23812 9.90039 8.28492 9.94631 8.28579 10.0024C8.28579 10.0543 8.32652 10.1062 8.37765 10.1206C8.43312 10.1368 8.46605 10.1937 8.44958 10.249C8.43658 10.2941 8.39412 10.3238 8.34819 10.3238Z" fill="white"/>
<path d="M4.27337 11.9339C4.23783 11.9339 4.20317 11.9262 4.17024 11.9101C4.08184 11.865 4.02638 11.757 4.02204 11.6193C4.01771 11.4951 4.05757 11.3361 4.1815 11.2622C4.2881 11.1984 4.46056 11.1975 4.54809 11.2979C4.58102 11.3353 4.59142 11.3761 4.59835 11.4152C4.61829 11.5317 4.64689 11.6916 4.52816 11.8174C4.46576 11.8829 4.36783 11.9339 4.27337 11.9339ZM4.2673 11.7264C4.28203 11.7315 4.33836 11.7137 4.3739 11.6763C4.41809 11.6295 4.40943 11.5564 4.39123 11.4501C4.38863 11.4348 4.3869 11.4297 4.38603 11.4288C4.3765 11.422 4.32103 11.4203 4.2907 11.4382C4.2569 11.4586 4.23177 11.5266 4.23177 11.5997C4.23177 11.678 4.25777 11.7196 4.26643 11.7256L4.2673 11.7264Z" fill="white"/>
<path d="M16.9227 8.54507C16.8777 8.54507 16.8326 8.53401 16.7928 8.51106C16.6827 8.44813 16.655 8.32059 16.6654 8.23046C16.6784 8.11312 16.759 8.04509 16.8118 8.00088C16.85 7.96856 16.8967 7.9354 16.96 7.932C17.0423 7.9269 17.1229 7.97622 17.1619 8.0553C17.1931 8.11907 17.1931 8.17604 17.1888 8.22791C17.181 8.31889 17.1697 8.44303 17.0553 8.51021C17.0155 8.53316 16.9687 8.54507 16.9227 8.54507ZM16.8985 8.33249C16.9141 8.341 16.9357 8.3393 16.9479 8.33249C16.9695 8.31974 16.9747 8.25937 16.9791 8.21005C16.9825 8.17264 16.9791 8.15988 16.973 8.14543C16.973 8.14373 16.9713 8.14288 16.9704 8.14203C16.9669 8.14458 16.9617 8.14798 16.9539 8.15478C16.9063 8.1956 16.8785 8.2194 16.8751 8.25427C16.8733 8.26617 16.8742 8.31889 16.8985 8.33249Z" fill="white"/>
<path d="M16.2614 8.6851C16.2181 8.6851 16.1748 8.67319 16.1392 8.64939C16.0829 8.61197 16.0474 8.54735 16.043 8.47252C16.0378 8.39174 16.069 8.31437 16.1254 8.26505C16.1791 8.21913 16.2571 8.19788 16.3334 8.20893C16.3966 8.21828 16.4478 8.24804 16.4755 8.29311C16.4928 8.32117 16.4998 8.35348 16.498 8.40025C16.4954 8.46742 16.492 8.57966 16.394 8.64428C16.3542 8.67064 16.3074 8.68425 16.2614 8.68425V8.6851ZM16.2571 8.47848C16.2614 8.47848 16.271 8.47848 16.2753 8.47507C16.2822 8.46827 16.2848 8.43766 16.2857 8.4147C16.277 8.4147 16.2684 8.4181 16.2632 8.42236C16.2502 8.43341 16.2493 8.46827 16.2562 8.47933L16.2571 8.47848Z" fill="white"/>
<path d="M14.9487 9.06437C14.9036 9.06437 14.8585 9.05332 14.8187 9.03036C14.7077 8.96744 14.6809 8.83989 14.6913 8.74976C14.7043 8.63242 14.7849 8.56439 14.8377 8.51933C14.8759 8.48702 14.9227 8.45386 14.9859 8.45045C15.0683 8.4462 15.1497 8.49467 15.1879 8.57375C15.2191 8.63752 15.2191 8.69449 15.2147 8.74636C15.2069 8.83734 15.1957 8.96148 15.0813 9.02781C15.0414 9.05077 14.9946 9.06267 14.9487 9.06267V9.06437ZM14.9244 8.8518C14.94 8.8603 14.9625 8.8586 14.9738 8.8518C14.9955 8.83904 15.0007 8.77867 15.005 8.72935C15.0085 8.69194 15.005 8.67919 14.9989 8.66473C14.9989 8.66303 14.9972 8.66218 14.9963 8.66133C14.9929 8.66388 14.9877 8.66728 14.9799 8.67408C14.9322 8.7149 14.9053 8.73871 14.901 8.77357C14.8993 8.78547 14.9001 8.83819 14.9244 8.8518Z" fill="white"/>
<path d="M3.58614 12.0874C3.54281 12.0874 3.49948 12.0755 3.46395 12.0517C3.40761 12.0143 3.37208 11.9497 3.36775 11.8749C3.36255 11.7941 3.39375 11.7167 3.45008 11.6674C3.50381 11.6215 3.58181 11.6002 3.65807 11.6113C3.72134 11.6206 3.77247 11.6504 3.8002 11.6955C3.81753 11.7218 3.82447 11.755 3.82273 11.8026C3.82013 11.8698 3.81667 11.982 3.71874 12.0466C3.67887 12.073 3.63207 12.0866 3.58614 12.0866V12.0874ZM3.58181 11.8808C3.58614 11.8808 3.59567 11.8808 3.60001 11.8774C3.60694 11.8706 3.60954 11.84 3.61127 11.817C3.60261 11.817 3.59394 11.8204 3.58874 11.8247C3.57574 11.8366 3.57487 11.8706 3.58181 11.8817V11.8808Z" fill="white"/>
<path d="M2.11365 13.0718C2.06165 13.0718 2.01225 13.0582 1.97065 13.0318C1.82333 12.9375 1.83893 12.7317 1.88486 12.6169C1.93426 12.4936 2.05385 12.3661 2.20205 12.3788C2.27138 12.3848 2.31817 12.4205 2.33551 12.4341C2.45684 12.5268 2.52097 12.7342 2.4239 12.8941C2.37277 12.9774 2.28351 13.0412 2.18558 13.0633C2.16131 13.0684 2.13705 13.0718 2.11365 13.0718ZM2.18211 12.5846C2.15611 12.5846 2.10498 12.6339 2.08158 12.6926C2.05818 12.7512 2.05558 12.8397 2.08678 12.8592C2.09805 12.866 2.11712 12.8677 2.13878 12.8626C2.18038 12.8533 2.22284 12.8235 2.24364 12.7887C2.28524 12.7206 2.24971 12.6297 2.20638 12.5973C2.20031 12.5922 2.19165 12.5854 2.18385 12.5854C2.18385 12.5854 2.18298 12.5854 2.18211 12.5854V12.5846Z" fill="white"/>
<path d="M6.19202 7.4136C6.14002 7.4136 6.09062 7.4 6.04902 7.37364C5.9017 7.27926 5.91729 7.07348 5.96323 6.95869C6.01262 6.8354 6.13395 6.70786 6.28041 6.72061C6.34975 6.72656 6.39654 6.76228 6.41388 6.77588C6.53521 6.86941 6.59934 7.07604 6.50227 7.23589C6.45114 7.31922 6.36188 7.38299 6.26395 7.4051C6.23968 7.4102 6.21542 7.4136 6.19202 7.4136ZM6.16429 7.20018C6.17555 7.20783 6.19462 7.20868 6.21628 7.20358C6.25788 7.19423 6.30035 7.16447 6.32115 7.1296C6.36275 7.06158 6.32635 6.97145 6.28388 6.93829C6.27782 6.93319 6.26915 6.92638 6.26135 6.92638C6.23448 6.92298 6.18249 6.974 6.15909 7.03437C6.13569 7.09304 6.13309 7.18147 6.16429 7.20103V7.20018Z" fill="white"/>
<path d="M9.63709 11.5962C9.58509 11.5962 9.53569 11.5826 9.49409 11.5563C9.34676 11.4619 9.36236 11.2561 9.40829 11.1413C9.45769 11.018 9.57642 10.8905 9.72548 10.9032C9.79481 10.9092 9.84161 10.9449 9.85895 10.9585C9.98027 11.0512 10.0444 11.2587 9.94734 11.4185C9.89621 11.5027 9.80695 11.5656 9.70815 11.5877C9.68388 11.5928 9.65962 11.5962 9.63622 11.5962H9.63709ZM9.60935 11.3828C9.62062 11.3896 9.63969 11.3913 9.66135 11.3862C9.70295 11.3768 9.74542 11.3471 9.76708 11.3122C9.80868 11.2442 9.77228 11.1541 9.72982 11.1209C9.72375 11.1158 9.71422 11.109 9.70728 11.109C9.68562 11.1056 9.62842 11.1566 9.60502 11.217C9.58162 11.2757 9.57902 11.3641 9.61022 11.3836L9.60935 11.3828Z" fill="white"/>
<path d="M11.0956 16.6851C11.0436 16.6851 10.9942 16.6715 10.9526 16.6451C10.8053 16.5507 10.8209 16.345 10.8668 16.2302C10.9162 16.1069 11.0367 15.9793 11.184 15.9921C11.2533 15.998 11.3001 16.0338 11.3174 16.0474C11.4388 16.14 11.5029 16.3475 11.4058 16.5074C11.3547 16.5907 11.2654 16.6545 11.1675 16.6766C11.1432 16.6817 11.119 16.6851 11.0956 16.6851ZM11.0679 16.4717C11.0791 16.4793 11.0982 16.4802 11.1198 16.4751C11.1614 16.4657 11.2039 16.436 11.2247 16.4011C11.2663 16.3331 11.2308 16.2421 11.1874 16.2098C11.1814 16.2047 11.1727 16.1979 11.1649 16.1979C11.1415 16.1936 11.086 16.2455 11.0627 16.3059C11.0393 16.3645 11.0367 16.453 11.0679 16.4725V16.4717Z" fill="white"/>
<path d="M10.1821 14.1966C10.1465 14.1966 10.1119 14.1889 10.0789 14.1728C9.99053 14.1277 9.93507 14.0197 9.93073 13.882C9.9264 13.7578 9.96627 13.5988 10.0902 13.5249C10.1968 13.4611 10.3693 13.4602 10.4568 13.5606C10.4897 13.598 10.5001 13.6388 10.507 13.6779C10.5278 13.7944 10.5556 13.9543 10.4368 14.0801C10.3753 14.1456 10.2765 14.1966 10.1821 14.1966ZM10.176 13.9891C10.1907 13.9942 10.2471 13.9764 10.2826 13.9389C10.3268 13.8922 10.3181 13.8191 10.2999 13.7128C10.2973 13.6975 10.2956 13.6924 10.2947 13.6915C10.2852 13.6847 10.2297 13.683 10.1994 13.7009C10.1656 13.7213 10.1405 13.7893 10.1405 13.8624C10.1405 13.9406 10.1665 13.9823 10.1751 13.9883L10.176 13.9891Z" fill="white"/>
<path d="M9.96187 13.2447C9.91854 13.2447 9.87521 13.2328 9.83968 13.209C9.78335 13.1715 9.74781 13.1069 9.74348 13.0321C9.73828 12.9513 9.76948 12.8739 9.82581 12.8246C9.87954 12.7787 9.95754 12.7574 10.0338 12.7685C10.0971 12.7779 10.1482 12.8076 10.1759 12.8527C10.1933 12.879 10.2002 12.9122 10.1985 12.9598C10.1959 13.027 10.1924 13.1392 10.0945 13.2039C10.0546 13.2302 10.0078 13.2438 9.96187 13.2438V13.2447ZM9.95754 13.0372C9.96187 13.0372 9.97141 13.0372 9.97574 13.0338C9.98267 13.027 9.98527 12.9964 9.98614 12.9734C9.97747 12.9734 9.96881 12.9768 9.96361 12.9811C9.95061 12.993 9.94974 13.027 9.95667 13.038L9.95754 13.0372Z" fill="white"/>
<path d="M2.31832 4.08451C2.27499 4.08451 2.23166 4.07261 2.19612 4.0488C2.13979 4.01139 2.10426 3.94676 2.09993 3.87194C2.09473 3.79116 2.12593 3.71378 2.18226 3.66446C2.23599 3.61855 2.31399 3.59729 2.39025 3.60834C2.45351 3.6177 2.50378 3.64746 2.53238 3.69252C2.54971 3.71973 2.55664 3.7529 2.55491 3.79966C2.55231 3.86684 2.54884 3.97908 2.45091 4.0437C2.41105 4.07006 2.36425 4.08366 2.31832 4.08366V4.08451ZM2.31399 3.87789C2.31919 3.87789 2.32785 3.87789 2.33218 3.87449C2.33912 3.86769 2.34172 3.83708 2.34258 3.81412C2.33392 3.81412 2.32525 3.81752 2.32005 3.82177C2.30705 3.83282 2.30619 3.86769 2.31312 3.87874L2.31399 3.87789Z" fill="white"/>
<path d="M2.83118 4.90579C2.77918 4.90579 2.72978 4.89219 2.68818 4.86583C2.54086 4.77144 2.55646 4.56567 2.60239 4.45088C2.65178 4.32759 2.77051 4.20004 2.91957 4.2128C2.98891 4.21875 3.0357 4.25446 3.05304 4.26807C3.17437 4.36075 3.2385 4.56822 3.14143 4.72808C3.0903 4.81141 3.00104 4.87518 2.90311 4.89729C2.87884 4.90239 2.85458 4.90579 2.83118 4.90579ZM2.89964 4.41857C2.87364 4.41857 2.82165 4.46789 2.79825 4.52656C2.77485 4.58523 2.77225 4.67366 2.80345 4.69322C2.81471 4.70002 2.83378 4.70172 2.85544 4.69662C2.89704 4.68727 2.93951 4.6575 2.96031 4.62264C3.00191 4.55462 2.96637 4.46364 2.92304 4.43132C2.91697 4.42622 2.90744 4.41942 2.90051 4.41942C2.90051 4.41942 2.89964 4.41942 2.89878 4.41942L2.89964 4.41857Z" fill="white"/>
<path d="M3.66663 5.71526C3.61463 5.71526 3.56523 5.70165 3.52363 5.67529C3.3763 5.58091 3.3919 5.37514 3.43784 5.26035C3.48723 5.13705 3.6077 5.01036 3.75502 5.02226C3.82522 5.02821 3.87115 5.06393 3.88935 5.07753C4.01068 5.17022 4.07481 5.37769 3.97688 5.53754C3.92575 5.62087 3.83649 5.68465 3.73856 5.70675C3.71429 5.71186 3.69003 5.71526 3.66663 5.71526ZM3.6389 5.50183C3.65016 5.50863 3.66923 5.51034 3.69089 5.50523C3.73249 5.49588 3.77496 5.46612 3.79662 5.43126C3.83822 5.36323 3.80182 5.2731 3.75936 5.23994C3.75242 5.23484 3.74462 5.22804 3.73682 5.22804C3.71256 5.22378 3.65796 5.2765 3.63456 5.33602C3.61116 5.39469 3.60856 5.48313 3.6389 5.50268V5.50183Z" fill="white"/>
</g>
<defs>
<clipPath id="clip0_15131_2068">
<rect width="18" height="18" fill="white"/>
</clipPath>
</defs>
</svg>
