<svg width="109" height="50" fill="none" xmlns="http://www.w3.org/2000/svg"><g clip-path="url(#clip0_306_9182)" fill="#408F95"><path d="M23.157 5.556a.254.254 0 01-.23-.143 1.539 1.539 0 01-.161-.834c.144-1.387 2.306-2.079 3.886-2.584a19.767 19.767 0 015.245-.91.255.255 0 01.265.244.255.255 0 01-.245.263 19.231 19.231 0 00-5.109.885c-1.282.41-3.428 1.096-3.537 2.156-.018.178.02.367.115.564a.253.253 0 01-.23.363v-.004zM51.64 7.107h-.03a6.807 6.807 0 01-1.215-.254c-.527-.161-.92-.358-1.086-.44l-.055-.028a70.62 70.62 0 00-5.516-2.38c-1.712-.652-3.067-1.169-4.888-1.621a31.002 31.002 0 00-5.914-.867.253.253 0 11.026-.505c2.036.1 4.058.397 6.013.883 1.852.46 3.217.98 4.947 1.639a71.292 71.292 0 015.555 2.395l.061.03c.17.084.524.261 1.01.41.367.113.744.191 1.123.234a.252.252 0 01-.03.504h-.002z"/><path d="M27.857 10.039a.274.274 0 01-.117-.027 33.226 33.226 0 01-1.706-.942c-.164-.098-.47-.279-.865-.544a16.725 16.725 0 01-1.773-1.37c-.012-.012-.024-.024-.034-.037a4.315 4.315 0 00-.099-.12c-.446-.539-.867-1.099-.69-1.5.054-.128.19-.283.518-.3a.252.252 0 01.27.237.253.253 0 01-.24.267.401.401 0 00-.083.012c0 .09.093.328.618.961.04.047.071.087.095.116.423.372.869.725 1.33 1.054.131.094.256.179.372.26.384.257.682.433.842.53.608.361 1.248.703 1.678.925a.253.253 0 01.109.342.256.256 0 01-.225.138v-.002zm10.125 1.476a47.47 47.47 0 01-4.9-.283 41.05 41.05 0 01-4.492-.817.252.252 0 11.118-.492c1.463.352 2.956.623 4.435.806.032.004 3.391.397 6.259.244a20.107 20.107 0 002.68-.325c.396-.074.612-.127 1.514-.346l1.092-.265c.358-.086.67-.165.946-.234.826-.206 1.37-.344 1.9-.381a7.85 7.85 0 012.374.2.251.251 0 01.187.305.252.252 0 01-.306.187 7.405 7.405 0 00-2.22-.187c-.485.033-.985.16-1.81.368-.279.07-.593.149-.95.235l-1.092.266c-.891.216-1.13.275-1.54.352a21.24 21.24 0 01-2.748.332c-.476.025-.964.035-1.447.035zM52.44 7.124a.253.253 0 01-.075-.495c.592-.18 3.68-1.105 6.226-1.478 1.242-.183 2.152-.2 3.144-.063.324.045.648.108.964.185a.253.253 0 11-.123.491 9.382 9.382 0 00-.914-.175c-.94-.131-1.81-.114-3 .061-2.508.37-5.565 1.282-6.151 1.462a.25.25 0 01-.076.012h.004zm7.314 9.198c-.018 0-.035 0-.053-.006-1.138-.243-3.073-1.18-3.78-1.827-.61-.454-1.098-.814-1.513-1.12-1.435-1.06-2.03-1.496-3.916-3.076a.254.254 0 01-.031-.356c.09-.106.25-.12.357-.032 1.874 1.569 2.465 2.005 3.892 3.056.42.309.91.67 1.527 1.13l.022.018c.636.59 2.494 1.486 3.55 1.712.139.03.226.163.196.3a.255.255 0 01-.249.201h-.002z"/><path d="M59.754 16.322a.255.255 0 01-.186-.08c-.661-.702-1.51-1.883-1.793-3.526-.085-.491-.282-1.641.182-2.948.425-1.193 1.165-1.883 2.022-2.683a11.533 11.533 0 012.544-1.79.255.255 0 01.343.106.253.253 0 01-.106.342 11.031 11.031 0 00-2.431 1.712c-.842.784-1.507 1.405-1.89 2.482-.42 1.183-.24 2.242-.16 2.694.26 1.52 1.048 2.614 1.663 3.265a.251.251 0 01-.012.357.26.26 0 01-.174.07h-.002zm-3.549-7.907a.248.248 0 01-.197-.094.252.252 0 01.037-.356 6.913 6.913 0 011.408-.878 7.023 7.023 0 011.908-.58.254.254 0 11.077.501 6.467 6.467 0 00-3.075 1.354.257.257 0 01-.16.057l.002-.004zm1.041 5.494a.263.263 0 01-.156-.053c-.549-.423-1.525-1.333-1.872-2.681-.107-.417-.332-1.285.061-2.172a2.72 2.72 0 01.194-.36.254.254 0 01.351-.074.251.251 0 01.075.35c-.06.09-.112.189-.156.289-.322.727-.134 1.452-.033 1.843.31 1.203 1.192 2.024 1.69 2.406.11.084.132.243.045.355a.25.25 0 01-.201.099l.002-.002zM32.19 8.476c-.054 0-.107 0-.162-.003a3.94 3.94 0 01-2.358-.93.252.252 0 01-.03-.356c.09-.106.25-.12.357-.03a3.431 3.431 0 002.05.81c1.006.042 1.689-.377 2.141-.656.247-.153.342-.246.373-.287-.075-.084-.399-.232-1.45-.419a11.404 11.404 0 00-2.952-.121.252.252 0 11-.043-.503 11.902 11.902 0 013.085.127c.965.171 1.836.37 1.878.893.02.237-.168.46-.624.74-.453.28-1.195.735-2.267.735h.002z"/><path d="M27.723 8.844a.258.258 0 01-.224-.13.252.252 0 01.1-.344 5.83 5.83 0 001.933-1.706c.266-.371.49-.776.66-1.204a.253.253 0 01.471.186 6.216 6.216 0 01-.719 1.311 6.332 6.332 0 01-2.099 1.855.252.252 0 01-.122.032zm-2.337-5.021a.404.404 0 01.798.133.404.404 0 01-.798-.133zm11.395 9.539a9.337 9.337 0 01-3.027-.538c-2.054-.727-3.178-1.354-5.038-2.392a.251.251 0 01-.097-.344.254.254 0 01.346-.096c1.9 1.059 2.946 1.643 4.96 2.356a8.985 8.985 0 002.848.51c.464-.019.687-.081.788-.127-.124-.084-.442-.25-1.238-.499a.252.252 0 11.152-.481c1.28.4 1.712.676 1.653 1.047-.075.464-.806.545-1.349.566l.002-.002z"/><path d="M37.557 12.258c-.158 0-.308-.008-.45-.016a21.06 21.06 0 01-3.756-.578 22.99 22.99 0 01-2.29-.74.254.254 0 01-.145-.327.256.256 0 01.328-.146c.734.281 1.486.525 2.237.726.067.017 1.665.438 3.655.56.458.027.952.04 1.53-.165.315-.11.613-.271.886-.478a.253.253 0 01.306.403 3.75 3.75 0 01-1.021.55c-.472.167-.9.21-1.282.21h.002z"/><path d="M45.948 13.362c-.663 0-1.323-.064-1.977-.194a10.25 10.25 0 01-4.032-1.785.253.253 0 11.302-.406 9.712 9.712 0 003.83 1.696c1.03.206 2.083.24 3.13.104-.04-.338-.155-.938-.47-1.37-.092-.124-.242-.33-.506-.497-.07-.046-.123-.071-.267-.142l-.1-.049a37.864 37.864 0 01-.676-.344.253.253 0 01-.107-.342.255.255 0 01.344-.106c.152.08.381.199.665.338l.1.05c.151.074.22.107.315.168.346.22.54.484.642.625.492.668.575 1.602.588 1.871a.255.255 0 01-.215.264c-.521.08-1.045.121-1.568.121l.002-.002zm2.216-7.981c-.373 0-.77-.025-1.213-.073a.253.253 0 01-.225-.279.252.252 0 01.28-.224c.427.045.806.069 1.162.071a.253.253 0 11-.002.505h-.002zm.225-2.871a.275.275 0 01-.08-.012c-.284-.094-.568-.19-.852-.289-.784-.27-1.596-.548-2.437-.733-3.662-.74-7.228-1.06-10.597-.945a.255.255 0 01-.263-.244.253.253 0 01.245-.261C37.812-.09 41.42.23 45.125.98c.874.192 1.698.475 2.496.75.282.097.564.195.847.287a.251.251 0 01.162.319.255.255 0 01-.241.175V2.51zm-19.397-.592a.253.253 0 01-.23-.147.253.253 0 01.126-.334 16.44 16.44 0 014.678-1.33.252.252 0 11.065.5 16.078 16.078 0 00-4.534 1.29.246.246 0 01-.105.023v-.002z"/><path d="M34.028 1.228a.253.253 0 01-.138-.466A4.77 4.77 0 0136.262.02a.253.253 0 11.022.505 4.328 4.328 0 00-1.916.54c-.087.048-.156.092-.206.121a.244.244 0 01-.136.04l.002.003zm3.541.222a.253.253 0 01-.136-.465A4.755 4.755 0 0138.83.384c.318-.081.646-.129.975-.142a.252.252 0 11.022.505 4.328 4.328 0 00-1.916.538c-.086.05-.155.093-.205.122a.249.249 0 01-.136.04l-.002.003zm3.266.46a.26.26 0 01-.215-.116.253.253 0 01.077-.35 4.817 4.817 0 012.374-.743.253.253 0 11.022.505 4.328 4.328 0 00-1.916.539c-.087.05-.156.092-.206.122a.244.244 0 01-.136.04v.003zm4.855 10.434h-.007a5.848 5.848 0 01-3.39-1.15.25.25 0 01-.052-.353.254.254 0 01.356-.051c.268.2.559.375.857.518a5.449 5.449 0 002.241.531c.14.004.251.12.249.26a.255.255 0 01-.255.247v-.002zm-.459-1.02a.26.26 0 01-.087-.016l-1.447-.526a.252.252 0 01-.152-.325.255.255 0 01.326-.15l1.447.526a.253.253 0 01-.087.491zm3.606-5.966a.254.254 0 01-.255-.246.253.253 0 01.247-.26c.958-.027 1.367-.212 1.434-.656-.182-.607-.648-1.1-1.422-1.505a.253.253 0 01-.107-.342.255.255 0 01.344-.107c.926.484 1.48 1.095 1.688 1.868.008.029.01.06.008.09-.106 1.104-1.384 1.142-1.929 1.158h-.008zM59.351 46.62a.26.26 0 01-.21-.11 1.022 1.022 0 01-.187-.525c-.045-.889 1.187-1.502 2.087-1.95.93-.464 1.94-.802 2.998-1.006a.253.253 0 11.097.497 11.266 11.266 0 00-2.867.961c-.688.342-1.835.914-1.807 1.472a.507.507 0 00.098.263.254.254 0 01-.209.398z"/><path d="M62.783 48.901a.239.239 0 01-.073-.011 15.802 15.802 0 01-1.384-.492 10.207 10.207 0 01-1.724-.886.31.31 0 01-.04-.032c-.013-.013-.037-.033-.065-.058-.331-.295-.65-.61-.569-.914.024-.089.101-.244.356-.297a.254.254 0 01.302.194.254.254 0 01-.116.27c.053.07.16.186.367.37.024.02.045.038.061.054a9.502 9.502 0 001.623.834c.431.176.881.337 1.337.475a.253.253 0 01-.073.495l-.002-.002z"/><path d="M64.99 49.045c-.674 0-1.351-.028-2.023-.085a.252.252 0 11.044-.503c.878.073 1.767.098 2.642.073.018 0 2-.07 3.645-.415a11.699 11.699 0 001.517-.424c.221-.079.342-.128.847-.336l.61-.252c.172-.07.324-.136.465-.195.442-.186.762-.322 1.145-.42a5.944 5.944 0 011.641-.185.254.254 0 11-.012.507 5.54 5.54 0 00-1.5.167c-.348.09-.652.218-1.075.397-.142.061-.296.126-.47.197l-.61.251c-.502.207-.636.262-.871.344a12.55 12.55 0 01-1.582.443c-1.69.351-3.651.422-3.734.424-.225.006-.453.01-.678.01l-.002.002zm10.776-4.065h-.01a4.127 4.127 0 01-1.12-.204l-.03-.01a41.316 41.316 0 00-3.414-.89c-1.052-.226-1.884-.405-2.978-.505a17.953 17.953 0 00-3.5.023.253.253 0 11-.05-.503c1.2-.123 2.41-.131 3.597-.023 1.126.102 1.971.285 3.04.515 1.159.25 2.322.552 3.458.902l.037.012a3.626 3.626 0 00.956.178 3.92 3.92 0 00.557-.141c.221-.073.377-.148.436-.175.603-.281 1.989-.796 3.192-1.142.679-.196 1.2-.31 1.85-.32.196-.004.395.004.589.021a.254.254 0 11-.046.505 5.455 5.455 0 00-.537-.02c-.59.009-1.076.117-1.714.301-1.302.376-2.625.885-3.11 1.111-.074.033-.25.116-.498.198a4.683 4.683 0 01-.66.165c-.014.002-.027.005-.043.005l-.002-.002zm5.854 4.64a.276.276 0 01-.103-.02l-2.805-1.237a22.275 22.275 0 01-2.57-1.505.252.252 0 01-.068-.352.255.255 0 01.353-.067 21.734 21.734 0 002.504 1.468l2.793 1.23a.255.255 0 01.13.334.254.254 0 01-.233.152l-.002-.002z"/><path d="M81.62 49.62a.251.251 0 01-.194-.09 6.915 6.915 0 01-1.187-1.985c-.231-.597-.413-1.069-.336-1.688.087-.7.454-1.163.918-1.751l.04-.051a6.862 6.862 0 011.339-1.288.253.253 0 11.302.407c-.47.346-.889.747-1.24 1.193l-.04.051c-.43.547-.742.942-.813 1.502-.062.493.084.87.306 1.442a6.49 6.49 0 001.102 1.842.251.251 0 01-.194.415l-.004.002zm-17.065-2.083a2.466 2.466 0 01-1.266-.36.254.254 0 01-.083-.347.256.256 0 01.35-.083 1.92 1.92 0 001.2.273c.557-.06.9-.353 1.13-.548.034-.028.06-.053.08-.073-.135-.031-.37-.05-.704-.059a6.605 6.605 0 00-1.703.189.254.254 0 11-.12-.493 7.112 7.112 0 011.835-.205c.644.016 1.183.06 1.272.433.053.228-.137.426-.33.591-.243.207-.694.588-1.404.667-.09.01-.174.013-.257.013v.002z"/><path d="M62.305 48.125a.253.253 0 01-.156-.454c.403-.31.72-.692.942-1.13.119-.232.208-.48.267-.737a.253.253 0 01.494.114 3.775 3.775 0 01-1.392 2.154.253.253 0 01-.157.053h.002zm-1.55-2.325h-.008a.494.494 0 01-.486-.497.488.488 0 01.5-.484c.133 0 .255.055.346.15a.488.488 0 01-.354.831h.002zm-.016-.491s.006.014.016.016a.017.017 0 00.016-.016h-.032zm0 0h.032s-.01-.022-.016-.016a.016.016 0 00-.016.016zM67.233 50a5.59 5.59 0 01-1.055-.1c-1.27-.242-1.983-.507-3.164-.947a.254.254 0 11.18-.474c1.197.446 1.855.69 3.08.924a5.066 5.066 0 001.672.04c.144-.019.276-.064.353-.101-.099-.09-.346-.256-.851-.472a.253.253 0 11.201-.464c1.138.486 1.242.796 1.195 1.034-.075.371-.652.482-.825.505a6.277 6.277 0 01-.782.055h-.004zm5.209-.804a6.126 6.126 0 01-2.824-.698.253.253 0 01-.106-.341.255.255 0 01.343-.106c.723.377 1.53.597 2.338.633a5.565 5.565 0 001.697-.187c-.071-.216-.186-.456-.342-.611-.063-.063-.156-.158-.308-.223-.045-.02-.079-.029-.156-.055l-.063-.02a19.074 19.074 0 01-.427-.139.254.254 0 11.166-.48c.095.034.24.081.415.138l.063.02c.105.033.148.047.21.075.236.104.389.255.462.328.367.367.505.928.539 1.09a.253.253 0 01-.172.293 6.065 6.065 0 01-1.833.283h-.002zm.751-4.844a.256.256 0 01-.255-.242.256.256 0 01.243-.265 6.51 6.51 0 00.671-.063.254.254 0 01.289.212.253.253 0 01-.214.287 6.88 6.88 0 01-.722.067h-.012v.004z"/><path d="M73.89 44.287a.252.252 0 01-.016-.505c.654-.041.981-.254 1.009-.432.026-.166-.201-.443-.76-.665a.252.252 0 11.187-.47c.747.295 1.15.747 1.075 1.213-.077.484-.63.804-1.48.857h-.015v.002zm-8.439-1.596a.253.253 0 01-.055-.5 19.945 19.945 0 016.37-.402 19.3 19.3 0 011.772.26.254.254 0 01.202.296.255.255 0 01-.298.2 19.77 19.77 0 00-1.726-.253 19.433 19.433 0 00-6.207.393.28.28 0 01-.056.006h-.002zm-3.031 1.291a.252.252 0 01-.14-.464 9.665 9.665 0 012.227-1.077c.09-.029.166-.055.22-.07a.256.256 0 01.318.165.253.253 0 01-.166.316l-.208.067a9.266 9.266 0 00-2.11 1.022.258.258 0 01-.139.041h-.002z"/><path d="M66.303 42.748a.14.14 0 01-.093-.244 2.776 2.776 0 01.756-.472 2.92 2.92 0 01.553-.168.138.138 0 01.164.11.138.138 0 01-.11.163 2.521 2.521 0 00-1.071.485c-.045.036-.083.07-.109.09a.137.137 0 01-.092.036h.002zm1.323-.041a.144.144 0 01-.119-.065.139.139 0 01.042-.193 5.664 5.664 0 01.76-.407 6.15 6.15 0 01.521-.202.143.143 0 01.178.088.142.142 0 01-.089.177 5.634 5.634 0 00-1.1.505c-.051.03-.093.057-.12.075a.132.132 0 01-.075.022h.002zm1.672.002a.139.139 0 01-.112-.057.138.138 0 01.03-.195c.03-.022.07-.053.124-.088a3.965 3.965 0 011.17-.537.139.139 0 01.173.098.14.14 0 01-.099.171 3.624 3.624 0 00-1.203.578.145.145 0 01-.083.028v.002zm3.233 5.381h-.02l-1.127-.156a.137.137 0 01-.119-.157.139.139 0 01.158-.118l1.128.156c.077.01.13.08.118.157a.14.14 0 01-.138.12v-.002zm7.251-.23a.203.203 0 01-.112-.034 3.781 3.781 0 01-.895-.782c-.34-.407-.657-.79-.616-1.293.044-.513.437-.84.853-1.185a3.923 3.923 0 011.148-.663.21.21 0 01.27.122.208.208 0 01-.122.27c-.375.139-.721.34-1.025.591-.377.313-.675.56-.705.9-.028.332.213.623.52.99.224.272.493.506.797.698a.209.209 0 01-.112.386zm6.219-8.56a.254.254 0 01-.247-.192 1 1 0 01.008-.556c.269-.85 1.64-.997 2.639-1.103a11.75 11.75 0 013.161.096.253.253 0 11-.083.5 11.18 11.18 0 00-3.023-.093c-.762.083-2.04.22-2.208.753a.52.52 0 000 .281.253.253 0 01-.247.315z"/><path d="M88.418 42.628a.263.263 0 01-.154-.051 14.897 14.897 0 01-1.755-1.562 10.136 10.136 0 01-.676-.808.323.323 0 01-.025-.043 1.25 1.25 0 00-.04-.077c-.21-.391-.397-.796-.213-1.056.053-.074.18-.192.436-.155.138.02.235.15.216.287a.254.254 0 01-.204.213c.024.084.085.23.215.475l.038.07a9.471 9.471 0 001.23 1.343c.342.317.71.621 1.088.91a.25.25 0 01.048.354.256.256 0 01-.202.1h-.002z"/><path d="M101.083 45.087a.27.27 0 01-.095-.018 5.45 5.45 0 00-1.465-.364c-.358-.035-.69-.021-1.148 0-.154.008-.322.014-.507.022l-.662.024c-.54.02-.685.025-.934.02a12.547 12.547 0 01-1.637-.136c-1.706-.256-3.57-.871-3.65-.899a24.413 24.413 0 01-2.505-1.006.253.253 0 11.215-.458c.8.376 1.623.706 2.45.985.018.006 1.9.627 3.563.876.514.077 1.043.12 1.57.13.235.004.363 0 .908-.02l.664-.023c.184-.006.35-.014.504-.022.48-.021.827-.037 1.22.002a5.945 5.945 0 011.604.397.253.253 0 01-.095.488v.002zm7.662-.993a.27.27 0 01-.109-.023 4.928 4.928 0 00-.495-.205c-.557-.198-1.049-.265-1.712-.314-1.351-.1-2.771-.08-3.304-.037-.081.005-.277.023-.537.013a4.619 4.619 0 01-.676-.074.226.226 0 01-.051-.016 4 4 0 01-.976-.58l-.025-.02a41.644 41.644 0 00-2.89-2.018c-.906-.578-1.623-1.034-2.614-1.507a18.22 18.22 0 00-3.288-1.193.253.253 0 11.128-.49c1.17.301 2.307.714 3.381 1.227 1.019.487 1.748.949 2.668 1.537a41.419 41.419 0 012.925 2.044l.031.023c.079.061.261.206.52.348.1.055.205.106.312.151a3.977 3.977 0 001.042.05c.664-.055 2.143-.055 3.391.037.707.053 1.234.124 1.847.342.185.065.367.141.543.224a.253.253 0 01-.109.481h-.002zm-2.923 5.743a.25.25 0 01-.177-.073l-2.196-2.13a22.336 22.336 0 01-1.884-2.304.252.252 0 11.412-.293 22.77 22.77 0 001.833 2.245l2.186 2.122a.25.25 0 01.004.358.252.252 0 01-.182.077l.004-.002z"/><path d="M105.823 49.837a.254.254 0 01-.239-.167 6.902 6.902 0 01-.417-2.274c-.008-.64-.012-1.146.276-1.698.328-.625.834-.934 1.474-1.323l.055-.033c.525-.32 1.1-.57 1.706-.743a.253.253 0 11.14.485 6.338 6.338 0 00-1.58.688l-.055.034c-.596.363-1.027.625-1.287 1.126-.231.44-.226.845-.22 1.458.008.706.139 1.415.387 2.109a.253.253 0 01-.154.324.255.255 0 01-.085.016l-.001-.002zM91.26 42.092c-.17 0-.353-.02-.547-.067a2.412 2.412 0 01-1.305-.853.253.253 0 01.043-.356.255.255 0 01.358.043 1.91 1.91 0 001.029.673c.543.135.97-.02 1.25-.122.041-.016.075-.028.102-.041-.116-.077-.331-.177-.642-.3a6.59 6.59 0 00-1.66-.412.253.253 0 11.059-.503c.63.075 1.234.224 1.791.446.598.238 1.088.466 1.04.845-.027.232-.276.352-.517.438a2.811 2.811 0 01-1.003.207l.002.002z"/><path d="M88.243 41.736a.253.253 0 01-.243-.177.252.252 0 01.165-.317 3.289 3.289 0 001.79-1.33.255.255 0 01.351-.073c.117.077.15.234.073.35a3.787 3.787 0 01-2.06 1.535.264.264 0 01-.076.012zm-.555-2.703a.49.49 0 11.18-.947.49.49 0 01-.179.947h-.001zm-.016-.495a.014.014 0 00.01.02c.006.002.017-.002.02-.01l-.03-.012v.002zm0 0l.03.012s0-.018-.01-.02c-.008-.002-.018.002-.02.01v-.002zm5.583 6.912c-.164 0-.314-.027-.387-.043a5.597 5.597 0 01-1.704-.68c-1.106-.666-1.681-1.163-2.635-1.985a.255.255 0 01.334-.383c.965.831 1.497 1.29 2.565 1.936a5.166 5.166 0 001.55.619c.142.031.283.035.368.025-.06-.12-.236-.36-.632-.737a.253.253 0 11.351-.365c.895.85.885 1.177.757 1.383-.115.183-.35.232-.563.232l-.004-.002zm5.855 1.16h-.012a6.089 6.089 0 01-2.071-.47 6.098 6.098 0 01-2.149-1.533.253.253 0 11.38-.338 5.517 5.517 0 003.624 1.818c.007-.194-.005-.468-.108-.69-.037-.08-.093-.2-.209-.316a1.595 1.595 0 00-.126-.104l-.054-.041c-.15-.117-.27-.215-.35-.28a.252.252 0 01-.035-.355.255.255 0 01.358-.036c.077.063.195.16.341.271l.052.042c.087.067.122.096.17.141.185.181.274.376.317.468.216.47.15 1.044.125 1.209a.254.254 0 01-.251.214h-.002zm1.335-4.454c-.018 0-.036 0-.053-.006a7.01 7.01 0 01-.701-.188.253.253 0 11.156-.482c.237.075.45.134.651.175.139.03.225.163.196.3a.254.254 0 01-.249.201z"/><path d="M101.156 42.275a2.77 2.77 0 01-.784-.128.253.253 0 11.146-.483c.628.186 1.009.101 1.098-.056.083-.145-.033-.485-.48-.884a.254.254 0 01.34-.377c.596.534.816 1.098.582 1.509-.156.275-.475.419-.902.419zm-.478-1.887a.246.246 0 01-.132-.038c-.496-.3-1.01-.581-1.529-.835a19.432 19.432 0 00-5.956-1.784.252.252 0 01-.217-.285.254.254 0 01.286-.216c2.157.289 4.213.906 6.112 1.831.533.26 1.063.549 1.57.86a.253.253 0 01-.132.47l-.002-.003zM89.8 37.892a.25.25 0 01-.246-.197.254.254 0 01.191-.303 9.592 9.592 0 012.696-.228c.14.008.247.126.241.266a.255.255 0 01-.267.24l-.219-.01a9.263 9.263 0 00-2.336.226.28.28 0 01-.057.006H89.8z"/><path d="M93.831 38.074a.14.14 0 01-.05-.27 2.778 2.778 0 01.876-.178c.191-.008.387.002.578.034a.14.14 0 01.117.159.142.142 0 01-.16.116 2.56 2.56 0 00-1.173.086c-.055.018-.1.035-.132.047a.147.147 0 01-.05.01l-.006-.004zm1.256.421a.14.14 0 01-.03-.275c.034-.008.086-.018.147-.03a5.905 5.905 0 011.27-.098.14.14 0 01.136.144c-.002.076-.071.131-.144.135a5.376 5.376 0 00-1.347.12.151.151 0 01-.03.004h-.002zm1.566.582a.14.14 0 01-.04-.273l.149-.04c.231-.057.472-.092.717-.104.19-.01.38-.008.567.01a.138.138 0 01.126.151.14.14 0 01-.152.126 3.622 3.622 0 00-.527-.008 3.526 3.526 0 00-.666.099c-.057.013-.105.027-.136.035a.138.138 0 01-.04.006l.002-.002zm1.146 6.165a.143.143 0 01-.068-.018l-1-.536a.141.141 0 01-.058-.189.143.143 0 01.19-.057l1 .537a.141.141 0 01.058.188.138.138 0 01-.122.073v.002zm6.904 2.305a.209.209 0 01-.168-.082 3.762 3.762 0 01-.565-1.044c-.176-.497-.34-.969-.124-1.425.221-.466.703-.637 1.214-.815a3.984 3.984 0 011.308-.224c.116 0 .209.092.209.208a.21.21 0 01-.209.21 3.51 3.51 0 00-1.168.2c-.464.164-.829.291-.975.6-.142.303-.018.658.14 1.11.117.333.286.645.504.93a.209.209 0 01-.166.336v-.004zM57.71 22.289a.28.28 0 01-.231-.122 1.327 1.327 0 01-.249-.696c-.061-1.195 1.64-2.04 2.88-2.657a16.377 16.377 0 014.176-1.401.278.278 0 11.107.546 15.806 15.806 0 00-4.033 1.352c-.977.488-2.612 1.302-2.571 2.133a.786.786 0 00.152.409c.087.127.055.3-.073.387a.273.273 0 01-.158.049z"/><path d="M62.513 25.483a.277.277 0 01-.081-.012 21.58 21.58 0 01-1.931-.686c-.273-.112-.646-.265-1.126-.507-.438-.22-.867-.466-1.278-.73a.358.358 0 01-.043-.033c-.02-.02-.054-.049-.093-.084-.448-.397-.877-.818-.774-1.205.027-.106.122-.295.438-.362a.278.278 0 01.13.54c.054.1.206.278.577.61.036.032.065.06.089.079a13.702 13.702 0 002.29 1.175c.607.25 1.241.474 1.88.668.149.046.232.2.187.348a.282.282 0 01-.27.199h.005z"/><path d="M65.6 25.683c-.94 0-1.886-.04-2.825-.118a.278.278 0 11.048-.554c1.234.104 2.48.137 3.706.102.026 0 2.807-.1 5.117-.582a17.08 17.08 0 002.133-.595c.312-.11.48-.18 1.187-.47l.857-.352c.239-.098.452-.189.65-.271.618-.261 1.064-.448 1.595-.588A8.273 8.273 0 0180.345 22a.28.28 0 01.273.285.286.286 0 01-.286.271 7.682 7.682 0 00-2.121.238c-.492.128-.923.31-1.52.56-.197.085-.412.175-.653.273l-.857.352c-.699.289-.886.366-1.214.48-.723.253-1.466.461-2.206.615-2.36.491-5.186.591-5.216.593-.314.01-.63.014-.948.014l.002.002zm15.09-5.688h-.013a5.513 5.513 0 01-1.546-.283l-.043-.013A58.037 58.037 0 0074.3 18.45c-1.476-.319-2.643-.568-4.18-.71a25.524 25.524 0 00-4.914.032.278.278 0 11-.06-.555 26.182 26.182 0 015.024-.033c1.57.143 2.751.397 4.246.72 1.62.347 3.247.772 4.834 1.259l.052.016c.134.043.45.145.865.206.166.024.333.041.501.047.27-.047.54-.114.8-.2.312-.104.535-.209.62-.248.84-.39 2.777-1.11 4.455-1.594.946-.273 1.67-.432 2.57-.444.272-.004.547.006.815.03a.28.28 0 11-.05.556 8.136 8.136 0 00-.76-.028c-.835.012-1.52.163-2.42.423-1.827.526-3.686 1.242-4.367 1.558a6.139 6.139 0 01-1.601.503.388.388 0 01-.048.004l.006.002zm8.195 6.495a.283.283 0 01-.113-.023l-3.926-1.73a32.297 32.297 0 01-2.09-1.145 32.83 32.83 0 01-1.5-.957.277.277 0 01-.073-.387.278.278 0 01.389-.073 31.779 31.779 0 003.515 2.06l3.912 1.723a.278.278 0 01-.114.533z"/><path d="M88.885 26.491a.28.28 0 01-.214-.098 9.612 9.612 0 01-1.649-2.758c-.32-.827-.57-1.48-.466-2.327.12-.959.628-1.601 1.27-2.415l.056-.07a9.54 9.54 0 011.86-1.79.28.28 0 01.39.06.278.278 0 01-.059.389 9.002 9.002 0 00-1.751 1.684l-.056.071c-.612.774-1.054 1.335-1.155 2.14-.089.708.119 1.244.433 2.058.36.932.883 1.806 1.556 2.598a.279.279 0 01-.213.458h-.002zm-23.892-2.916a3.358 3.358 0 01-1.732-.494.277.277 0 01-.09-.383.278.278 0 01.384-.09c.303.184.929.481 1.728.393.802-.089 1.296-.51 1.624-.787.104-.088.168-.153.205-.196-.132-.051-.44-.102-1.126-.12a9.312 9.312 0 00-2.403.267.278.278 0 11-.132-.54 9.832 9.832 0 012.55-.283c.837.02 1.597.077 1.71.546.053.224-.074.442-.439.753-.355.303-.952.808-1.925.916a3.1 3.1 0 01-.352.02l-.002-.003z"/><path d="M61.843 24.398a.281.281 0 01-.22-.108.278.278 0 01.049-.391 4.649 4.649 0 001.722-2.655.28.28 0 01.545.125 5.243 5.243 0 01-1.923 2.97.28.28 0 01-.173.059zm-2.168-3.257h-.01a.611.611 0 01.01-1.22h.008a.611.611 0 01-.01 1.22h.002zm0-.664a.053.053 0 00-.053.053c0 .018.008.032.016.037a.05.05 0 00.037.016.057.057 0 00.055-.053.056.056 0 00-.053-.055l-.002.002zm9.068 6.545c-.49 0-.981-.047-1.463-.138-1.771-.338-2.767-.707-4.418-1.323a.278.278 0 01-.163-.357.281.281 0 01.359-.163c1.679.625 2.603.968 4.327 1.297a7.36 7.36 0 001.356.127h.008c.332 0 .668-.023.998-.07.278-.04.517-.136.602-.2-.08-.107-.403-.372-1.28-.748a.277.277 0 01-.146-.365.28.28 0 01.367-.146c1.55.663 1.685 1.078 1.628 1.364-.097.484-.928.625-1.092.649-.356.05-.717.075-1.075.077h-.01l.002-.004zm7.293-1.126a8.508 8.508 0 01-3.918-.967.279.279 0 11.26-.491 7.973 7.973 0 003.305.895 7.861 7.861 0 002.474-.284c-.08-.27-.24-.683-.52-.962-.086-.086-.228-.23-.453-.328a1.933 1.933 0 00-.227-.078l-.087-.028c-.253-.08-.458-.15-.595-.196a.279.279 0 11.182-.527c.134.045.334.114.583.192l.086.028c.133.041.198.063.287.1.32.142.517.338.622.442.5.5.69 1.266.734 1.488.03.14-.053.28-.19.323a8.429 8.429 0 01-2.54.395l-.003-.002zm1.051-6.783a.28.28 0 01-.28-.265.28.28 0 01.266-.291c.35-.016.66-.045.948-.086a.279.279 0 11.083.55 9.649 9.649 0 01-1.005.092h-.014.002z"/><path d="M78.063 19.023a.28.28 0 01-.018-.558c.961-.061 1.437-.38 1.483-.669.04-.25-.227-.662-1.112-1.01a.28.28 0 11.205-.519c1.01.397 1.555 1.003 1.458 1.616-.1.639-.85 1.063-2 1.138h-.018l.001.002zM66.25 16.788a.28.28 0 01-.273-.216.279.279 0 01.211-.332 27.888 27.888 0 018.895-.562 27.66 27.66 0 012.474.361.278.278 0 11-.107.547 26.55 26.55 0 00-2.423-.356 27.279 27.279 0 00-8.715.552c-.021.004-.041.008-.06.008l-.003-.002zm-4.245 1.808a.283.283 0 01-.235-.126.276.276 0 01.081-.385 13.705 13.705 0 013.1-1.5l.307-.098a.278.278 0 11.166.531c-.072.022-.172.055-.293.094a13.072 13.072 0 00-2.972 1.439.274.274 0 01-.152.045h-.002z"/><path d="M67.37 17.166a.21.21 0 01-.157-.071.208.208 0 01.018-.295c.04-.035.096-.085.17-.142.27-.212.57-.387.892-.522.249-.104.51-.185.778-.238a.21.21 0 11.08.41 3.55 3.55 0 00-1.644.806.206.206 0 01-.138.053l.002-.002zm1.924-.266a.209.209 0 01-.115-.385 7.926 7.926 0 011.068-.572c.24-.106.487-.202.732-.283a.21.21 0 01.267.132.209.209 0 01-.133.265 7.66 7.66 0 00-1.704.812.22.22 0 01-.113.033l-.002-.002zm2.341.004a.21.21 0 01-.126-.377 5.565 5.565 0 011.817-.875.212.212 0 01.258.146.21.21 0 01-.147.257 5.103 5.103 0 00-1.517.694c-.068.045-.122.086-.16.114a.21.21 0 01-.124.041h-.001zm4.524 7.533s-.02 0-.03-.002l-1.578-.218a.21.21 0 01-.18-.236.21.21 0 01.238-.179l1.578.218a.21.21 0 01.18.236.21.21 0 01-.208.181zm10.154-.421a.203.203 0 01-.112-.033 5.263 5.263 0 01-1.235-1.079c-.462-.556-.898-1.08-.843-1.75.057-.683.597-1.13 1.165-1.603a5.431 5.431 0 011.58-.914.21.21 0 01.27.122.208.208 0 01-.122.27 5.06 5.06 0 00-1.46.843c-.542.451-.97.807-1.014 1.316-.042.5.306.918.746 1.449.322.387.703.719 1.136.992a.209.209 0 01-.113.385l.002.002zm-62.266 4.3a.253.253 0 01-.237-.163 1.004 1.004 0 01-.057-.554c.168-.875 1.51-1.18 2.49-1.403a11.748 11.748 0 013.152-.273c.14.006.249.125.243.265a.257.257 0 01-.267.242 11.13 11.13 0 00-3.013.26c-.748.17-2 .455-2.105 1.003a.524.524 0 00.033.28.252.252 0 01-.239.341v.002z"/><path d="M26.84 31.339a.253.253 0 01-.129-.036c-.424-.25-.837-.52-1.228-.803-.17-.124-.405-.293-.699-.545a10.256 10.256 0 01-.766-.723.295.295 0 01-.032-.04 1.368 1.368 0 00-.05-.07c-.252-.366-.487-.745-.335-1.022.044-.08.154-.214.415-.205.14.005.25.12.247.26a.254.254 0 01-.178.234c.034.082.11.218.268.446l.046.067c.223.234.464.46.713.67.28.238.503.4.667.519.378.273.776.534 1.187.776a.252.252 0 01-.13.47l.004.002z"/><path d="M33.667 32.613c-.13 0-.259-.002-.387-.006-1.726-.055-3.648-.448-3.729-.466a23.987 23.987 0 01-2.606-.708.253.253 0 11.161-.48c.838.28 1.697.512 2.55.693.018.004 1.96.4 3.641.456.52.017 1.051 0 1.574-.055.235-.024.364-.044.905-.128l.651-.1.496-.079c.474-.077.818-.134 1.213-.14.537-.01 1.09.061 1.639.207a.253.253 0 11-.133.49 5.504 5.504 0 00-1.498-.191c-.36.005-.688.058-1.14.133-.152.026-.318.051-.501.08l-.65.101c-.537.083-.683.106-.93.13-.417.041-.838.063-1.254.063h-.002zm7.01-2.019c-.102 0-.207-.004-.31-.01a.149.149 0 01-.051-.01 4.273 4.273 0 01-.405-.139c-.314-.126-.537-.263-.634-.322l-.026-.016a41.39 41.39 0 00-3.106-1.668c-.97-.468-1.734-.838-2.775-1.191a18.312 18.312 0 00-3.406-.802.253.253 0 11.069-.501c1.197.16 2.374.438 3.503.823 1.069.364 1.847.739 2.83 1.215a42.036 42.036 0 013.146 1.688l.034.02a3.563 3.563 0 00.884.398 4.006 4.006 0 001.041-.072c.652-.132 2.121-.305 3.371-.36.707-.03 1.24-.02 1.872.124.192.043.381.098.567.16a.255.255 0 01.16.32.257.257 0 01-.322.159 5.017 5.017 0 00-.517-.146c-.577-.131-1.073-.141-1.738-.112-1.353.06-2.76.242-3.286.348a4.317 4.317 0 01-.9.092v.002zm4.293 5.874a.252.252 0 01-.154-.053l-2.43-1.86a22.703 22.703 0 01-2.143-2.07.255.255 0 01.377-.34 22.699 22.699 0 002.085 2.017l2.422 1.852c.11.085.132.244.047.356a.254.254 0 01-.202.098h-.002z"/><path d="M44.972 36.468a.253.253 0 01-.227-.139 6.925 6.925 0 01-.683-2.209c-.083-.635-.148-1.136.075-1.72.251-.658.717-1.024 1.307-1.485l.052-.04a6.947 6.947 0 011.607-.937.251.251 0 01.332.135.25.25 0 01-.136.33 6.44 6.44 0 00-1.49.867l-.05.04c-.55.43-.946.74-1.148 1.267-.178.464-.124.867-.045 1.474.09.7.304 1.39.634 2.048a.256.256 0 01-.227.367v.002zM29.367 30.49c-.092 0-.19-.006-.288-.018a2.424 2.424 0 01-1.398-.693.251.251 0 01.002-.358c.1-.098.26-.098.36.002.173.175.544.478 1.101.548.555.073.96-.131 1.229-.267.04-.02.07-.037.096-.051-.124-.063-.35-.136-.671-.222a6.58 6.58 0 00-1.698-.216.255.255 0 01-.255-.254c0-.14.114-.253.255-.253.635 0 1.25.078 1.83.233.622.167 1.136.335 1.134.72 0 .232-.223.375-.462.495-.245.122-.67.336-1.235.336v-.002z"/><path d="M26.56 30.474a.252.252 0 01-.105-.483 3.347 3.347 0 001.183-.877c.17-.198.316-.419.434-.652a.254.254 0 01.342-.112.252.252 0 01.112.34 3.808 3.808 0 01-1.864 1.765.244.244 0 01-.104.021l.001-.002zm-.897-2.617a.49.49 0 11.122-.965.488.488 0 01.356.597.482.482 0 01-.227.299.488.488 0 01-.25.069h-.001zm0-.506s-.014.006-.016.012c0 .008.004.018.012.02a.016.016 0 00.02-.012c.002-.008-.002-.018-.012-.02h-.004zm6.143 6.236c-.08 0-.148-.006-.191-.01a5.615 5.615 0 01-1.774-.475c-1.175-.533-1.805-.96-2.85-1.665a.252.252 0 01-.066-.352.255.255 0 01.353-.066c1.057.713 1.64 1.106 2.775 1.623a5.099 5.099 0 001.611.432c.144.014.284.002.367-.015-.073-.112-.276-.33-.714-.659a.253.253 0 11.304-.405c.99.74 1.017 1.066.914 1.286-.12.26-.484.306-.73.306h.001zm5.714.474c-.573 0-1.138-.08-1.689-.24a6.118 6.118 0 01-2.315-1.271.253.253 0 11.338-.38 5.62 5.62 0 002.121 1.166 5.6 5.6 0 001.693.218c-.014-.193-.06-.466-.186-.674a.954.954 0 00-.247-.289 1.46 1.46 0 00-.138-.089l-.057-.033c-.162-.098-.295-.18-.382-.236a.253.253 0 01-.077-.35.255.255 0 01.352-.076c.085.055.211.134.371.23l.055.033c.093.057.133.08.186.12.207.157.318.34.371.428.271.445.271 1.02.265 1.186a.254.254 0 01-.237.243c-.142.01-.282.014-.425.014zm1.208-4.593h-.023a7.377 7.377 0 01-.72-.104.254.254 0 01-.2-.297.256.256 0 01.297-.2c.245.047.462.078.668.098a.253.253 0 01-.022.505v-.002z"/><path d="M39.22 29.515c-.166 0-.346-.016-.537-.05a.252.252 0 11.089-.497c.645.115 1.013-.015 1.084-.18.065-.154-.089-.478-.58-.824a.252.252 0 01-.062-.351.254.254 0 01.354-.061c.655.462.938.996.756 1.43-.146.348-.545.535-1.104.535v-.002zm-.47-1.829a.262.262 0 01-.107-.024 18.51 18.51 0 00-1.617-.65 19.498 19.498 0 00-6.126-1.08.255.255 0 01-.25-.257.257.257 0 01.258-.25c2.176.036 4.291.41 6.286 1.107.56.196 1.12.42 1.66.668a.252.252 0 01.125.336.255.255 0 01-.231.147l.002.003zm-11.095-1.211a.252.252 0 01-.239-.17.25.25 0 01.154-.322 9.703 9.703 0 012.65-.54.253.253 0 11.034.505c-.053.004-.128.008-.217.016a9.226 9.226 0 00-2.295.497.257.257 0 01-.085.014h-.002z"/><path d="M31.692 26.186a.143.143 0 01-.125-.075.14.14 0 01.06-.189 2.799 2.799 0 011.428-.314.142.142 0 01.134.145.14.14 0 01-.146.134 2.528 2.528 0 00-1.284.281.132.132 0 01-.065.016l-.002.002zm1.298.269a.14.14 0 01-.046-.27c.033-.013.083-.028.142-.048a5.972 5.972 0 011.25-.246.142.142 0 01.152.128.142.142 0 01-.128.151 5.798 5.798 0 00-1.189.232l-.134.044a.125.125 0 01-.046.007l-.002.002zm1.623.397a.137.137 0 01-.129-.084.14.14 0 01.075-.183 4.046 4.046 0 011.407-.3c.076 0 .142.058.144.135a.14.14 0 01-.137.143 3.722 3.722 0 00-1.175.228c-.055.02-.1.04-.13.051a.13.13 0 01-.053.012l-.002-.002zm1.864 5.988a.15.15 0 01-.052-.01l-1.058-.416a.14.14 0 01-.08-.18.142.142 0 01.183-.08l1.058.417a.14.14 0 01.08.181.14.14 0 01-.131.089zm7.117 1.484a.21.21 0 01-.152-.065 3.764 3.764 0 01-.683-.97c-.233-.474-.453-.922-.29-1.402.163-.49.623-.713 1.111-.951.4-.195.826-.32 1.272-.375a.208.208 0 01.233.182.208.208 0 01-.184.232c-.397.047-.78.162-1.135.334-.44.217-.79.386-.899.71-.106.316.06.656.27 1.085.155.316.36.607.61.864a.208.208 0 01-.007.295.21.21 0 01-.146.06v.001zM6.247 4.628a.274.274 0 01-.117-.027 11.146 11.146 0 00-2.85-1.012c-.752-.156-2.008-.415-2.334.04a.53.53 0 00-.087.268.256.256 0 01-.27.236.253.253 0 01-.237-.27 1.01 1.01 0 01.18-.526c.517-.725 1.866-.446 2.851-.244 1.02.21 2.02.566 2.98 1.06a.251.251 0 01.109.34.256.256 0 01-.225.137v-.002z"/><path d="M1.88 8.038a.254.254 0 01-.21-.108 15.46 15.46 0 01-.78-1.24c-.102-.183-.244-.434-.406-.784a10.67 10.67 0 01-.395-.977.199.199 0 01-.012-.05 1.302 1.302 0 00-.014-.085c-.077-.436-.132-.878.123-1.069.073-.055.23-.13.464-.013a.252.252 0 01-.142.477c-.002.089.01.246.057.517l.014.08a9.347 9.347 0 00.757 1.655c.228.405.48.808.753 1.2a.252.252 0 01-.207.396l-.002.002z"/><path d="M13.174 14.249a.253.253 0 01-.162-.06c-.4-.33-.833-.597-1.282-.793-.327-.144-.647-.23-1.092-.35-.148-.041-.31-.085-.49-.136l-.635-.179c-.522-.147-.662-.186-.899-.267-.521-.177-1.03-.39-1.517-.629-1.546-.764-3.128-1.92-3.195-1.97A24.231 24.231 0 011.83 8.143a.251.251 0 01-.012-.357.254.254 0 01.36-.012c.645.6 1.326 1.167 2.027 1.686.016.012 1.616 1.177 3.12 1.922.467.23.954.432 1.454.604.223.074.348.11.87.257l.637.179c.178.05.338.094.486.133.464.126.797.219 1.16.376a5.87 5.87 0 011.403.867.252.252 0 01.034.355.251.251 0 01-.196.093l.002.004zm7.599 1.397a.256.256 0 01-.174-.069 5.268 5.268 0 00-.408-.346c-.468-.357-.917-.572-1.533-.821-1.256-.507-2.61-.924-3.132-1.046a4.503 4.503 0 01-1.135-.428.212.212 0 01-.044-.03 3.926 3.926 0 01-.75-.851l-.018-.025a40.919 40.919 0 00-2.127-2.805c-.687-.827-1.226-1.48-2.022-2.232a18.077 18.077 0 00-2.76-2.14.253.253 0 11.272-.43 18.544 18.544 0 012.84 2.202c.817.774 1.368 1.437 2.063 2.276A40.73 40.73 0 0114 11.743l.021.031a3.546 3.546 0 00.638.73c.168.09.346.168.525.233.22.079.388.118.453.134.648.151 2.055.601 3.215 1.071.655.265 1.135.495 1.65.888.157.12.307.248.449.38a.251.251 0 01-.176.436h-.002zm-4.553 4.571a.255.255 0 01-.226-.135l-1.432-2.699a23.284 23.284 0 01-.663-1.568c-.15-.393-.29-.796-.417-1.2a.253.253 0 01.484-.151 22.377 22.377 0 001.053 2.696l1.425 2.686a.253.253 0 01-.225.371z"/><path d="M16.217 20.217a.256.256 0 01-.254-.245 6.928 6.928 0 01.304-2.292c.191-.611.341-1.095.788-1.53.503-.496 1.08-.634 1.81-.809l.064-.015a6.93 6.93 0 011.852-.185c.14.004.25.122.245.261a.249.249 0 01-.263.244 6.405 6.405 0 00-1.716.17l-.063.017c-.68.163-1.169.28-1.574.678-.355.348-.476.735-.657 1.32a6.346 6.346 0 00-.28 2.125.254.254 0 01-.248.261h-.008zM5.468 8.5c-.333 0-.81-.045-1.295-.348a2.408 2.408 0 01-.98-1.21.254.254 0 01.478-.173c.085.23.297.66.772.954.474.295.929.278 1.229.266a.798.798 0 00.108-.008 4.194 4.194 0 00-.517-.482 6.49 6.49 0 00-1.453-.9.253.253 0 11.213-.46c.576.264 1.104.59 1.566.971.496.409.892.777.73 1.124-.098.213-.37.25-.627.26-.064.002-.139.006-.222.006h-.002z"/><path d="M2.02 7.134h-.033a.253.253 0 11.002-.507h.031a3.333 3.333 0 002.084-.72c.11-.088.27-.07.357.04.087.11.071.27-.04.356a3.82 3.82 0 01-2.399.831H2.02zm.346-2.73a.487.487 0 01-.31-.11.487.487 0 01-.071-.69.49.49 0 01.693-.07.487.487 0 01.071.69.489.489 0 01-.383.18zm0-.505s-.01 0-.012.006c-.004.006-.004.018.002.022.006.006.018.004.022-.002s.004-.018-.002-.022a.015.015 0 00-.01-.004zm3.47 8.345c-.263 0-.551-.152-.658-.214a5.646 5.646 0 01-1.414-1.168c-.845-.973-1.24-1.62-1.894-2.694a.254.254 0 01.435-.264c.661 1.087 1.027 1.687 1.844 2.626a5.095 5.095 0 001.286 1.061c.126.073.257.12.342.138-.02-.132-.113-.415-.376-.894a.253.253 0 01.103-.344.255.255 0 01.346.102c.59 1.083.48 1.39.294 1.549a.463.463 0 01-.306.1l-.002.002zm4.99 2.849a.283.283 0 01-.089-.015 6 6 0 01-1.824-1.081 6.081 6.081 0 01-1.572-2.115.254.254 0 01.464-.206 5.526 5.526 0 002.887 2.838c.067-.183.14-.447.112-.69a.985.985 0 00-.102-.366c-.024-.043-.044-.07-.09-.137l-.037-.055a17.39 17.39 0 01-.246-.374.253.253 0 01.076-.35.256.256 0 01.352.077c.053.085.136.21.24.364l.038.055c.062.09.087.127.117.186.122.23.146.44.158.543.06.513-.18 1.038-.255 1.187a.253.253 0 01-.227.14h-.002zm2.644-3.828a.244.244 0 01-.126-.033 7.469 7.469 0 01-.61-.393.253.253 0 01-.06-.354.258.258 0 01.356-.06c.202.144.387.264.567.366a.253.253 0 01-.127.474z"/><path d="M14.472 11.656c-.328 0-.725-.147-1.146-.436a.252.252 0 01-.065-.352.255.255 0 01.353-.065c.54.37.929.407 1.06.283.123-.114.12-.471-.183-.988a.254.254 0 01.44-.254c.404.692.437 1.295.09 1.614a.792.792 0 01-.55.198zm-.233-2.002a.256.256 0 01-.194-.089 18.78 18.78 0 00-1.197-1.261 19.379 19.379 0 00-5.116-3.52.255.255 0 01-.12-.338.257.257 0 01.339-.12c1.963.933 3.73 2.15 5.25 3.612.427.41.842.847 1.23 1.297a.254.254 0 01-.194.419h.002zm-7.013-5.11a.249.249 0 01-.09-.018 9.448 9.448 0 00-2.5-.574.254.254 0 11.044-.505 9.708 9.708 0 012.636.607c.131.05.198.197.147.327a.255.255 0 01-.237.163z"/><path d="M9.758 5.642a.143.143 0 01-.064-.015 2.587 2.587 0 00-1.143-.28c-.06 0-.109 0-.14.004a.138.138 0 01-.148-.131.14.14 0 01.132-.148 2.719 2.719 0 01.889.096c.185.052.367.122.539.209.069.035.097.12.061.187a.139.139 0 01-.124.076l-.002.002zm1.062.8a.133.133 0 01-.047-.008 5.812 5.812 0 00-1.179-.283c-.06-.008-.107-.012-.14-.016a.14.14 0 01-.127-.15.142.142 0 01.152-.127c.036.004.087.008.148.016a6.058 6.058 0 011.239.297.14.14 0 01-.048.271h.002zm1.313 1.026a.148.148 0 01-.055-.012 3.735 3.735 0 00-1.163-.279l-.14-.008a.14.14 0 01-.136-.143.14.14 0 01.144-.136c.035 0 .088.004.152.008a3.937 3.937 0 011.252.303.14.14 0 01.075.182.14.14 0 01-.129.085zm-2.168 5.918a.135.135 0 01-.1-.043l-.789-.818a.139.139 0 11.202-.192l.788.817a.139.139 0 01-.101.236zm5.881 4.308a.207.207 0 01-.198-.14 3.766 3.766 0 01-.215-1.165c-.012-.53-.025-1.026.322-1.396.354-.375.865-.389 1.408-.405.445-.011.885.051 1.313.187a.21.21 0 11-.128.399 3.561 3.561 0 00-1.173-.167c-.492.014-.879.024-1.114.273-.229.244-.219.621-.21 1.099.009.351.074.701.192 1.037a.209.209 0 01-.197.277z"/></g><defs><clipPath id="clip0_306_9182"><path fill="#fff" d="M0 0h109v50H0z"/></clipPath></defs></svg>